# xmcd
# 
# Track frame offsets:
#   150
#   15337
#   33561
#   50668
#   65070
#   76334
#   92414
#   112140
#   129177
#   147002
#   159710
#   172982
#   187123
#   206632
# 
# Disc length: 2972 seconds
# 
# Revision: 2
# Processed by: cddbd v1.5.1PL2 Copyright (c) Steve Scherf et al.
# Submitted via: Synapstar 1.0 
# 
DISCID=bd0b9a0e
DTITLE=Various Artist - SD088
DYEAR=1900
DGENRE=Country
TTITLE0=Clint Black and Lisa Hartman - Easy For Me To Say
TTITLE1=Jo Dee Messina and Tim McGraw - Bring On The Rain
TTITLE2=Brooks and Dunn - Long Good-Bye, The
TTITLE3=Blake Shelton - All Over Me
TTITLE4=Dixie Chicks, The - Some Days You Just Gotta Dance
TTITLE5=Cyndi Thompson - I'm Gone
TTITLE6=David Ball - Riding With Private Malone
TTITLE7=Rascal Flatts - I'm Movin' On
TTITLE8=Chris Cagle - I Breathe In I Breathe Out
TTITLE9=Alan Jackson - It's Alright To Be A Redneck
TTITLE10=Jeffery Steele - Something In The Water
TTITLE11=Brian McComas - Night Disapear With You
TTITLE12=Mark Willis and Jamie O'Neal - I'm Not Gonna Do Anything Without You
TTITLE13=Kevin Sharp - Beautiful People
EXTD=MediaType: Karaoke CD+G Producer: StarDisc
EXTT0=
EXTT1=
EXTT2=
EXTT3=
EXTT4=
EXTT5=
EXTT6=
EXTT7=
EXTT8=
EXTT9=
EXTT10=
EXTT11=
EXTT12=
EXTT13=
PLAYORDER=
